<?xml version="1.0" encoding="UTF-8"?>
<svg id="Layer_1" xmlns="http://www.w3.org/2000/svg" version="1.1" viewBox="0 0 500 500">
  <!-- Generator: Adobe Illustrator 29.2.1, SVG Export Plug-In . SVG Version: 2.1.0 Build 116)  -->
  <defs>
    <style>
      .st0 {
        fill: #f27a5d;
      }

      .st1 {
        fill: #a68077;
      }
    </style>
  </defs>
  <path class="st0" d="M206.4,225.2l-9.1,14.3c-.7,1.1-1,1.7-1,1.9,0,.4.5.7,1.4.8v.9h-9.3v-.9c1.2,0,2-.5,2.6-1.5l10.2-15.8c-3.5-.3-6.3-1.4-8.3-3.3-2-1.9-3-4.4-3-7.5s.5-3.9,1.4-5.5c.8-1.4,1.9-2.6,3.2-3.4,1.3-.8,2.8-1.4,4.6-1.7,1.7-.3,4.1-.5,7.1-.5h21.9v.9c-.7.2-1.2.4-1.5.8-.3.3-.4.9-.4,1.7v33.1c0,.8.1,1.4.4,1.7.3.3.8.6,1.5.8v.9h-8.3v-.9c.7-.2,1.2-.5,1.5-.8.3-.3.4-.9.4-1.7v-14.5h-15.3ZM221.7,207h-15.8c-2.4,0-4.1,0-5.2.3-1.1.2-2.1.5-3.1,1-2.1,1.2-3.1,3.1-3.1,5.9s1,4.7,3,5.9c.9.5,1.9.8,3,1,1.1.2,2.8.3,5,.3h16.2v-14.4Z"/>
  <path class="st1" d="M235.2,239.4h25.5c.8,0,1.4-.1,1.7-.4.3-.3.6-.8.8-1.5h.9v7.6h-.9c-.2-.7-.4-1.2-.8-1.5-.3-.3-.9-.4-1.7-.4h-32v-.9c.8-.2,1.3-.5,1.5-.8.2-.3.4-.9.4-1.7v-33.1c0-.8-.1-1.4-.4-1.7-.3-.3-.8-.6-1.5-.8v-.9h8.3v.9c-.7.2-1.2.5-1.5.8-.3.3-.4.9-.4,1.7v32.7Z"/>
</svg>