<?xml version="1.0" encoding="UTF-8"?>
<svg id="Layer_1" data-name="Layer 1" xmlns="http://www.w3.org/2000/svg" viewBox="0 0 75.71 41.87">
  <defs>
    <style>
      .cls-1 {
        fill: #f27a5d;
      }

      .cls-2 {
        fill: #a68077;
      }
    </style>
  </defs>
  <path class="cls-1" d="M17.93,22l-9.09,14.33c-.68,1.07-1.03,1.71-1.03,1.9,0,.39.48.66,1.44.82v.94H0v-.94c1.15,0,2.03-.49,2.64-1.46l10.17-15.79c-3.53-.27-6.31-1.37-8.33-3.3-2.02-1.93-3.03-4.42-3.03-7.47,0-2.03.47-3.86,1.41-5.49.82-1.43,1.89-2.55,3.22-3.37,1.29-.8,2.81-1.36,4.56-1.69,1.75-.32,4.13-.48,7.13-.48h21.94v.94c-.74.18-1.24.44-1.49.78-.25.34-.38.92-.38,1.74v33.08c0,.82.13,1.4.38,1.73.25.33.75.6,1.49.79v.94h-8.35v-.94c.74-.19,1.24-.46,1.49-.8.25-.34.38-.91.38-1.71v-14.54h-15.29ZM33.22,3.81h-15.79c-2.36,0-4.11.09-5.23.26-1.12.18-2.14.52-3.06,1.03-2.07,1.17-3.11,3.15-3.11,5.92s1.01,4.72,3.02,5.89c.86.49,1.85.83,2.97,1.01,1.12.19,2.79.28,5,.28h16.2V3.81Z"/>
  <path class="cls-2" d="M46.71,36.18h25.55c.82,0,1.4-.13,1.74-.38.34-.25.6-.75.78-1.49h.94v7.56h-.94c-.18-.74-.43-1.24-.78-1.49-.34-.25-.92-.38-1.74-.38h-32.02v-.94c.76-.19,1.26-.46,1.51-.79.24-.33.37-.91.37-1.73V3.46c0-.82-.13-1.4-.38-1.73-.25-.33-.75-.6-1.49-.79v-.94h8.35v.94c-.74.2-1.24.46-1.49.79-.25.33-.38.91-.38,1.73v32.72Z"/>
</svg>